<svg width="1190" height="630" viewBox="0 0 1190 630" fill="none" xmlns="http://www.w3.org/2000/svg">
<g filter="url(#filter0_d_771_2)">
<path d="M5 7C5 4.79086 6.79086 3 9 3H1181C1183.21 3 1185 4.79086 1185 7V619C1185 621.209 1183.21 623 1181 623H9.00001C6.79087 623 5 621.209 5 619V7Z" fill="#1E1E1E" fill-opacity="0.7" shape-rendering="crispEdges"/>
<path d="M5 7C5 4.79086 6.79086 3 9 3H1181C1183.21 3 1185 4.79086 1185 7V619C1185 621.209 1183.21 623 1181 623H9.00001C6.79087 623 5 621.209 5 619V7Z" fill="url(#paint0_linear_771_2)" fill-opacity="0.35" shape-rendering="crispEdges"/>
<path d="M5 7C5 4.79086 6.79086 3 9 3H1181C1183.21 3 1185 4.79086 1185 7V619C1185 621.209 1183.21 623 1181 623H9.00001C6.79087 623 5 621.209 5 619V7Z" fill="url(#paint1_linear_771_2)" fill-opacity="0.35" shape-rendering="crispEdges"/>
<path d="M5 7C5 4.79086 6.79086 3 9 3H1181C1183.21 3 1185 4.79086 1185 7V619C1185 621.209 1183.21 623 1181 623H9.00001C6.79087 623 5 621.209 5 619V7Z" fill="url(#paint2_radial_771_2)" fill-opacity="0.25" shape-rendering="crispEdges"/>
<path d="M5 7C5 4.79086 6.79086 3 9 3H1181C1183.21 3 1185 4.79086 1185 7V619C1185 621.209 1183.21 623 1181 623H9.00001C6.79087 623 5 621.209 5 619V7Z" fill="url(#paint3_radial_771_2)" fill-opacity="0.25" shape-rendering="crispEdges"/>
<path d="M5 7C5 4.79086 6.79086 3 9 3H1181C1183.21 3 1185 4.79086 1185 7V619C1185 621.209 1183.21 623 1181 623H9.00001C6.79087 623 5 621.209 5 619V7Z" fill="black" fill-opacity="0.2" shape-rendering="crispEdges"/>
</g>
<defs>
<filter id="filter0_d_771_2" x="0" y="0" width="1190" height="630" filterUnits="userSpaceOnUse" color-interpolation-filters="sRGB">
<feFlood flood-opacity="0" result="BackgroundImageFix"/>
<feColorMatrix in="SourceAlpha" type="matrix" values="0 0 0 0 0 0 0 0 0 0 0 0 0 0 0 0 0 0 127 0" result="hardAlpha"/>
<feMorphology radius="1" operator="dilate" in="SourceAlpha" result="effect1_dropShadow_771_2"/>
<feOffset dy="2"/>
<feGaussianBlur stdDeviation="2"/>
<feComposite in2="hardAlpha" operator="out"/>
<feColorMatrix type="matrix" values="0 0 0 0 0 0 0 0 0 0 0 0 0 0 0 0 0 0 0.25 0"/>
<feBlend mode="normal" in2="BackgroundImageFix" result="effect1_dropShadow_771_2"/>
<feBlend mode="normal" in="BackgroundImageFix" in2="effect1_dropShadow_771_2" result="BackgroundImageFix"/>
<feBlend mode="normal" in="SourceGraphic" in2="BackgroundImageFix" result="shape"/>
</filter>
<linearGradient id="paint0_linear_771_2" x1="1185" y1="3" x2="45.0334" y2="689.479" gradientUnits="userSpaceOnUse">
<stop stop-opacity="0.25"/>
<stop offset="1" stop-color="#0D0D22" stop-opacity="0.95"/>
</linearGradient>
<linearGradient id="paint1_linear_771_2" x1="1185" y1="623" x2="45.0334" y2="-63.4794" gradientUnits="userSpaceOnUse">
<stop stop-color="#0D0D22" stop-opacity="0.5"/>
<stop offset="1" stop-color="#0D0D22" stop-opacity="0.95"/>
</linearGradient>
<radialGradient id="paint2_radial_771_2" cx="0" cy="0" r="1" gradientTransform="matrix(-382.271 208.102 -396.065 -634.798 256.057 454.796)" gradientUnits="userSpaceOnUse">
<stop stop-color="#2C3BE0" stop-opacity="0.5"/>
<stop offset="1" stop-opacity="0"/>
</radialGradient>
<radialGradient id="paint3_radial_771_2" cx="0" cy="0" r="1" gradientTransform="matrix(281.479 -143.519 259.938 444.819 921.036 221.722)" gradientUnits="userSpaceOnUse">
<stop stop-color="#E640FF" stop-opacity="0.5"/>
<stop offset="1" stop-opacity="0"/>
</radialGradient>
</defs>
</svg>
